<svg width="18" height="19" viewBox="0 0 18 19" fill="none" xmlns="http://www.w3.org/2000/svg">
<path d="M16.3217 15.7612L12.2752 11.7146C13.215 10.505 13.6584 8.98273 13.5151 7.45767C13.3719 5.93262 12.6527 4.5195 11.5041 3.50607C10.3555 2.49264 8.86387 1.9551 7.33284 2.00291C5.80182 2.05071 4.34658 2.68028 3.26345 3.7634C2.18033 4.84652 1.55075 6.30175 1.50293 7.83277C1.45511 9.3638 1.99264 10.8555 3.00607 12.0041C4.01949 13.1527 5.4326 13.8718 6.95766 14.0151C8.48271 14.1584 10.005 13.715 11.2146 12.7752L15.2612 16.8218C15.402 16.9616 15.5925 17.0399 15.791 17.0396C15.9894 17.0393 16.1797 16.9603 16.32 16.8199C16.4603 16.6796 16.5393 16.4894 16.5396 16.2909C16.5399 16.0925 16.4616 15.902 16.3217 15.7612ZM3.04147 8.04146C3.04147 7.15144 3.30539 6.28141 3.79986 5.54139C4.29433 4.80137 4.99713 4.22459 5.8194 3.884C6.64166 3.5434 7.54646 3.45429 8.41938 3.62792C9.29229 3.80156 10.0941 4.23014 10.7235 4.85948C11.3528 5.48881 11.7814 6.29064 11.955 7.16355C12.1286 8.03646 12.0395 8.94126 11.6989 9.76353C11.3583 10.5858 10.7816 11.2886 10.0415 11.7831C9.30152 12.2775 8.43149 12.5415 7.54147 12.5415C6.3484 12.5402 5.20456 12.0656 4.36093 11.222C3.5173 10.3784 3.04277 9.23453 3.04147 8.04146Z" fill="#8C939D"/>
</svg>
